<svg width="20" height="20" viewBox="0 0 20 20" fill="none" xmlns="http://www.w3.org/2000/svg">
    <rect width="20" height="20" rx="4" fill="#2862E9"/>
    <path d="M10.8076 11.8609L13.7877 13.5344C13.9739 13.6374 14.1942 13.6654 14.4013 13.6122C14.6085 13.559 14.7859 13.429 14.8957 13.25C15.0004 13.068 15.0276 12.8534 14.9714 12.6521C14.9152 12.4508 14.7802 12.279 14.5953 12.1736L11.6152 10.5L14.5953 8.82643C14.7802 8.72096 14.9152 8.54915 14.9714 8.34789C15.0276 8.14664 15.0004 7.93198 14.8957 7.75C14.7859 7.57101 14.6085 7.44099 14.4013 7.38782C14.1942 7.33464 13.9739 7.36256 13.7877 7.46557L10.8076 9.13914V5.792C10.8064 5.58341 10.7211 5.38361 10.5701 5.23553C10.4191 5.08744 10.2144 5.00288 10 5C9.56713 5 9.1924 5.35357 9.1924 5.79043V9.13914L6.21235 7.46557C6.02612 7.36256 5.80581 7.33464 5.59868 7.38782C5.39154 7.44099 5.21407 7.57101 5.10432 7.75C4.99963 7.93198 4.97245 8.14664 5.02862 8.34789C5.08479 8.54915 5.21983 8.72096 5.40475 8.82643L8.3848 10.5L5.40475 12.1736C5.21983 12.279 5.08479 12.4508 5.02862 12.6521C4.97245 12.8534 4.99963 13.068 5.10432 13.25C5.32075 13.6146 5.82308 13.7529 6.21235 13.5344L9.1924 11.8609V15.208C9.1924 15.6339 9.5542 16 10 16C10.4329 16 10.8076 15.6464 10.8076 15.2096V11.8609Z" fill="#282828"/>
</svg>
