<svg width="20" height="20" viewBox="0 0 20 20" fill="none" xmlns="http://www.w3.org/2000/svg">
    <rect width="20" height="20" rx="4" fill="#E46C4D"/>
    <path d="M13.915 4.31637C13.8594 4.22008 13.7779 4.1399 13.679 4.08425C13.5801 4.02859 13.4675 3.9995 13.3529 4.00001C13.2412 4.00039 13.1316 4.0284 13.0345 4.08133C12.9375 4.13426 12.8562 4.21033 12.7987 4.30219L6.09297 15.0585C6.03353 15.1527 6.00145 15.2605 6.00005 15.3706C5.99865 15.4807 6.02799 15.5892 6.08502 15.6847C6.20085 15.8811 6.41094 16 6.64714 16C6.75876 15.9996 6.86839 15.9716 6.96545 15.9187C7.06252 15.8657 7.14375 15.7897 7.20132 15.6978L13.907 4.94146C13.9665 4.84729 13.9986 4.73954 14 4.62941C14.0014 4.51929 13.972 4.41191 13.915 4.31637Z" fill="#28282B"/>
</svg>
