<svg width="16" height="16" viewBox="0 0 16 16" fill="none" xmlns="http://www.w3.org/2000/svg">
    <path fill-rule="evenodd" clip-rule="evenodd" d="M8.00065 14.6667C4.31865 14.6667 1.33398 11.682 1.33398 8.00004C1.33398 4.31804 4.31865 1.33337 8.00065 1.33337C11.6827 1.33337 14.6673 4.31804 14.6673 8.00004C14.6673 11.682 11.6827 14.6667 8.00065 14.6667ZM8.00065 13.3334C9.41514 13.3334 10.7717 12.7715 11.7719 11.7713C12.7721 10.7711 13.334 9.41453 13.334 8.00004C13.334 6.58555 12.7721 5.229 11.7719 4.2288C10.7717 3.22861 9.41514 2.66671 8.00065 2.66671C6.58616 2.66671 5.22961 3.22861 4.22941 4.2288C3.22922 5.229 2.66732 6.58555 2.66732 8.00004C2.66732 9.41453 3.22922 10.7711 4.22941 11.7713C5.22961 12.7715 6.58616 13.3334 8.00065 13.3334ZM7.33398 10.6667H8.66732V12H7.33398V10.6667ZM7.33398 9.33871C7.33398 9.33871 8.66732 9.33337 8.66732 9.33871C8.66732 8.67071 10.6673 8.00004 10.6673 6.66671C10.6673 5.19337 9.48532 4.00004 8.00665 4.00004C7.65595 3.99925 7.30855 4.06764 6.98432 4.2013C6.66009 4.33496 6.36541 4.53126 6.11715 4.77896C5.86889 5.02667 5.67193 5.3209 5.53754 5.64483C5.40316 5.96876 5.33398 6.31601 5.33398 6.66671H6.66732C6.66732 5.93337 7.26732 5.33337 8.00065 5.33337C8.73398 5.33337 9.33398 5.93337 9.33398 6.66671C9.33398 7.26671 7.33398 8.24471 7.33398 9.33871Z" fill="#8C97B0"/>
</svg>
