<svg width="20" height="20" viewBox="0 0 20 20" fill="none" xmlns="http://www.w3.org/2000/svg">
    <path fill-rule="evenodd" clip-rule="evenodd" d="M5.86667 1.13417L5.9825 1.08667H17.7667L17.8833 1.13417L18.865 2.11667L18.9125 2.2325V14.0167L18.865 14.1333L17.8825 15.115L17.7667 15.1625H11.6667V15C11.6674 14.5735 11.5039 14.1632 11.21 13.8542H17.6042V2.39584H6.14583V8.46417C5.71785 8.3584 5.27727 8.3124 4.83667 8.3275V2.2325L4.88417 2.11584L5.86667 1.135V1.13417ZM13.8092 9.01084L11.4683 11.3442C11.3912 11.201 11.2935 11.0699 11.1783 10.955L10.8292 10.605L12.6925 8.7425L9.6875 5.66417L10.365 4.97L13.8092 8.41417V9.01084ZM8.01667 12.35L9.11667 11.25L10 12.1333L8.56667 13.5667L8.75 13.75V15H10V16.2083H8.75V16.2917C8.68833 16.7074 8.5735 17.1135 8.40833 17.5L10 19.1167L9.11667 20L7.74167 18.625C7.41461 19.0425 6.99912 19.3823 6.52507 19.62C6.05102 19.8578 5.53018 19.9875 5 20C4.46984 19.9874 3.94905 19.8576 3.47501 19.6199C3.00098 19.3821 2.58547 19.0424 2.25833 18.625L0.883333 20L0 19.1167L1.59167 17.5C1.42853 17.1215 1.31374 16.7239 1.25 16.3167V16.25H0V15H1.25V13.75L1.43333 13.5667L0 12.1333L0.883333 11.25L1.98333 12.35C2.15063 11.6765 2.53853 11.0783 3.08524 10.6508C3.63194 10.2232 4.30599 9.99098 5 9.99098C5.69401 9.99098 6.36806 10.2232 6.91476 10.6508C7.46147 11.0783 7.84937 11.6765 8.01667 12.35ZM6.32583 11.7992C6.06361 11.5369 5.72952 11.3584 5.3658 11.286C5.00208 11.2137 4.62508 11.2508 4.28247 11.3927C3.93985 11.5346 3.64702 11.775 3.44099 12.0833C3.23496 12.3916 3.125 12.7542 3.125 13.125H6.875C6.875 12.8788 6.82651 12.635 6.73228 12.4075C6.63805 12.18 6.49994 11.9733 6.32583 11.7992ZM6.7 17.9492C7.15605 17.493 7.43893 16.8922 7.5 16.25V14.375H2.5V16.25C2.56105 16.8924 2.84406 17.4934 3.30033 17.9497C3.75661 18.4059 4.35763 18.689 5 18.75C5.64245 18.6891 6.24359 18.4062 6.7 17.95V17.9492Z" fill="#8C97B0"/>
</svg>
