<svg width="16" height="16" viewBox="0 0 16 16" fill="none" xmlns="http://www.w3.org/2000/svg">
    <rect width="16" height="16" rx="8" fill="#2B354F"/>
    <path d="M8 3.125C5.308 3.125 3.125 5.308 3.125 8C3.125 10.4861 4.9868 12.538 7.39192 12.8374C7.72585 12.879 8 12.6022 8 12.2657C8 11.9292 7.72541 11.6616 7.3936 11.6058C6.88636 11.5204 6.40048 11.3285 5.96902 11.0401C5.36787 10.6384 4.89935 10.0674 4.6227 9.39936C4.34605 8.73133 4.27369 7.99627 4.41477 7.28713C4.55586 6.57798 4.90405 5.92659 5.41532 5.41532C5.92659 4.90405 6.57798 4.55586 7.28713 4.41477C7.99627 4.27369 8.73133 4.34605 9.39936 4.6227C10.0674 4.89935 10.6384 5.36787 11.0401 5.96902C11.3285 6.40048 11.5204 6.88636 11.6058 7.3936C11.6616 7.72541 11.9292 8 12.2657 8C12.6022 8 12.879 7.72585 12.8374 7.39192C12.538 4.9868 10.4861 3.125 8 3.125Z" fill="#2E68FF"/>
</svg>