<svg width="12" height="15" viewBox="0 0 12 15" fill="none" xmlns="http://www.w3.org/2000/svg">
    <path d="M9.99935 5.33342H9.33268V4.00008C9.33268 2.16008 7.83935 0.666748 5.99935 0.666748C4.15935 0.666748 2.66602 2.16008 2.66602 4.00008V5.33342H1.99935C1.26602 5.33342 0.666016 5.93341 0.666016 6.66675V13.3334C0.666016 14.0667 1.26602 14.6667 1.99935 14.6667H9.99935C10.7327 14.6667 11.3327 14.0667 11.3327 13.3334V6.66675C11.3327 5.93341 10.7327 5.33342 9.99935 5.33342ZM5.99935 11.3334C5.26602 11.3334 4.66602 10.7334 4.66602 10.0001C4.66602 9.26675 5.26602 8.66675 5.99935 8.66675C6.73268 8.66675 7.33268 9.26675 7.33268 10.0001C7.33268 10.7334 6.73268 11.3334 5.99935 11.3334ZM8.06602 5.33342H3.93268V4.00008C3.93268 2.86008 4.85935 1.93341 5.99935 1.93341C7.13935 1.93341 8.06602 2.86008 8.06602 4.00008V5.33342Z" fill="#8C97B0"/>
</svg>
