<svg
        width="26"
        height="26"
        viewBox="0 0 26 26"
        fill="none"
        xmlns="http://www.w3.org/2000/svg"
        class="logo"
>
    <g transform="translate(1, 1)">
        <path
                d="M15 3C15 4.65685 13.6569 9 12 9C10.3431 9 9 4.65685 9 3C9 1.34315 10.3431 0 12 0C13.6569 0 15 1.34315 15 3Z"
                fill="#E85C4F"
        />
        <path
                d="M9 21C9 19.3431 10.3431 15 12 15C13.6569 15 15 19.3431 15 21C15 22.6569 13.6569 24 12 24C10.3431 24 9 22.6569 9 21Z"
                fill="#E85C4F"
        />
        <path
                d="M5.7055 4.90187C7.14038 5.7303 10.2301 9.06507 9.40165 10.4999C8.57322 11.9348 4.14038 10.9264 2.7055 10.098C1.27062 9.2696 0.778995 7.43482 1.60742 5.99995C2.43585 4.56507 4.27062 4.07344 5.7055 4.90187Z"
                fill="#E85C4F"
        />
        <path
                d="M18.2945 19.0981C16.8596 18.2697 13.7699 14.9349 14.5983 13.5001C15.4268 12.0652 19.8596 13.0736 21.2945 13.902C22.7294 14.7304 23.221 16.5652 22.3926 18.0001C21.5642 19.4349 19.7294 19.9266 18.2945 19.0981Z"
                fill="#E85C4F"
        />
        <path
                d="M2.7055 13.9019C4.14038 13.0734 8.57322 12.0651 9.40165 13.4999C10.2301 14.9348 7.14038 18.2696 5.7055 19.098C4.27062 19.9264 2.43585 19.4348 1.60742 17.9999C0.778995 16.5651 1.27062 14.7303 2.7055 13.9019Z"
                fill="#E85C4F"
        />
        <path
                d="M21.2945 10.0981C19.8596 10.9266 15.4268 11.9349 14.5983 10.5001C13.7699 9.06518 16.8596 5.7304 18.2945 4.90198C19.7294 4.07355 21.5642 4.56518 22.3926 6.00005C23.221 7.43493 22.7294 9.2697 21.2945 10.0981Z"
                fill="white"
                stroke="black"
        />
    </g>
</svg>